<?xml version="1.0" encoding="UTF-8" standalone="no"?>
<svg
   width="16"
   height="16"
   version="1.1"
   id="svg2"
   sodipodi:docname="window-restore-symbolic.svg"
   inkscape:version="1.3.1 (9b9bdc1480, 2023-11-25, custom)"
   xmlns:inkscape="http://www.inkscape.org/namespaces/inkscape"
   xmlns:sodipodi="http://sodipodi.sourceforge.net/DTD/sodipodi-0.dtd"
   xmlns="http://www.w3.org/2000/svg"
   xmlns:svg="http://www.w3.org/2000/svg">
  <defs
     id="defs2" />
  <sodipodi:namedview
     id="namedview2"
     pagecolor="#ffffff"
     bordercolor="#000000"
     borderopacity="0.25"
     inkscape:showpageshadow="2"
     inkscape:pageopacity="0.0"
     inkscape:pagecheckerboard="0"
     inkscape:deskcolor="#d1d1d1"
     inkscape:zoom="51.0625"
     inkscape:cx="8.0097919"
     inkscape:cy="8"
     inkscape:window-width="1920"
     inkscape:window-height="1020"
     inkscape:window-x="0"
     inkscape:window-y="0"
     inkscape:window-maximized="1"
     inkscape:current-layer="svg2" />
  <g
     fill="#4c5263"
     id="g2"
     transform="matrix(0.625,0,0,0.625,2.999875,3)">
    <path
       d="m 306.0002,159.5 v -8 c 0,-0.5 0.51955,-0.5 0.51955,-0.5 h 3.48045 v 3 h -2 v 4.0025 h 6 v -2 h 2 V 159.5 c 0,0.47672 -0.5,0.5 -0.5,0.5 h -9 c 0,0 -0.5,0 -0.5,-0.5 z"
       transform="translate(-305,-145)"
       id="path1" />
    <path
       d="m 311.5002,146 c -0.5,0 -0.5,0.5 -0.5,0.5 v 8 c 0,0.5 0.5,0.5 0.5,0.5 h 9 c 0,0 0.5,0 0.5,-0.5 v -8 c 0,-0.5 -0.5,-0.5 -0.5,-0.5 z m 1.5,3 h 6 v 3.99664 h -6 z"
       transform="translate(-305,-145)"
       id="path2" />
  </g>
</svg>
